<svg xmlns="http://www.w3.org/2000/svg" viewBox="0 0 240 234">
  <rect width="240" height="234" rx="42" ry="42" fill="#330000"/>
  <path d="M116.3 140.4H79.1l-7.7 23.8c-.3.9-.9 1.2-1.9 1.2H53.4c-1.1 0-1.4-.5-1.1-1.7l33.2-96.6c.5-1.5 1-3.2 1.5-5.2.6-2.8.9-5.6.9-8.4-.1-.6.3-1.2.9-1.3h21.6c.8 0 1.2.3 1.4.9l37.5 110.8c.3 1.1 0 1.5-1 1.5h-18.5c-.8.1-1.3-.3-1.5-1l-8-24.1zM84 124.9h27.7c-.7-2.4-1.6-5.1-2.6-8.1s-2-6.1-3-9.3-2-6.3-2.9-9.4-1.9-6-2.7-8.8c-.8-2.8-1.5-5.3-2.1-7.4h-.2c-.8 3.5-1.8 7.1-2.9 10.8s-2.3 7.5-3.5 11.2c-1.2 3.8-2.4 7.4-3.6 11-1.3 3.5-2.4 6.8-3.5 9.7l-.7.3z" fill="#FF9A00"/>
  <path d="M174.3 76c-3.1.1-6.1-1.1-8.3-3.3-2.2-2.4-3.3-5.5-3.2-8.7-.1-3.2 1.1-6.3 3.4-8.5 2.3-2.2 5.3-3.4 8.4-3.3 3.5 0 6.4 1.1 8.5 3.3 2.2 2.3 3.3 5.4 3.2 8.5.1 3.2-1 6.3-3.2 8.7-2.3 2.2-5.4 3.4-8.6 3.3h-.2zm-10 89.1V90.7c0-.8.4-1.3 1.1-1.3h17.7c.8 0 1.2.5 1.2 1.3v74.4c0 .9-.4 1.4-1.2 1.4h-17.5c-.9 0-1.3-.6-1.3-1.4z" fill="#FF9A00"/>
</svg>
